<svg xmlns="http://www.w3.org/2000/svg" width="780" height="440" viewBox="0 0 780 440" fill="none"><rect width="780" height="440" fill="#7DEAD5"></rect><path d="M459.668 323.299H501.135C509.419 323.299 516.135 316.583 516.135 308.299V253.014C516.135 244.73 522.851 238.014 531.135 238.014H618.353C626.638 238.014 633.353 231.298 633.353 223.014V113.988C633.353 105.703 626.638 98.9877 618.353 98.9877H268.659C260.375 98.9877 253.659 105.703 253.659 113.988V152.917C253.659 161.201 246.944 167.917 238.659 167.917H112.888C104.603 167.917 97.8876 174.632 97.8876 182.917V223.014C97.8876 231.298 104.603 238.014 112.888 238.014H258.52C266.805 238.014 273.52 244.73 273.52 253.014V308.299C273.52 316.583 266.805 323.299 258.52 323.299H206.538" stroke="#040404" stroke-width="1.5"></path><rect x="304.807" y="55.3099" width="156.554" height="314.474" rx="20.25" fill="white" stroke="#040404" stroke-width="1.5"></rect><circle cx="338.739" cy="99.2818" r="16.4843" fill="#08C4B2" stroke="#040404" stroke-width="1.5"></circle><path d="M347.44 55.3099H418.727C418.344 60.3598 414.125 64.3381 408.977 64.3381H357.19C352.042 64.3381 347.823 60.3598 347.44 55.3099Z" fill="white" stroke="#040404" stroke-width="1.5"></path><path d="M369.248 98.7205H436.085" stroke="#040404" stroke-width="1.5"></path><path d="M321.504 134.356H445.282" stroke="#040404" stroke-width="1.5"></path><path d="M321.504 148.643H401.389" stroke="#040404" stroke-width="1.5"></path><rect x="322.254" y="164.83" width="34.9567" height="36.7631" fill="#08C4B2" stroke="#040404" stroke-width="1.5"></rect><rect x="322.254" y="209.826" width="34.9567" height="36.7631" fill="#FFE16E" stroke="#040404" stroke-width="1.5"></rect><rect x="322.254" y="254.822" width="34.9567" height="36.7631" fill="#08C4B2" stroke="#040404" stroke-width="1.5"></rect><rect x="365.826" y="164.83" width="34.9567" height="36.7631" fill="#FFE16E" stroke="#040404" stroke-width="1.5"></rect><rect x="365.826" y="209.826" width="34.9567" height="36.7631" fill="#08C4B2" stroke="#040404" stroke-width="1.5"></rect><rect x="365.826" y="254.822" width="34.9567" height="36.7631" fill="#FFE16E" stroke="#040404" stroke-width="1.5"></rect><rect x="409.397" y="164.83" width="34.9567" height="36.7631" fill="#08C4B2" stroke="#040404" stroke-width="1.5"></rect><rect x="409.397" y="209.826" width="34.9567" height="36.7631" fill="#FFE16E" stroke="#040404" stroke-width="1.5"></rect><rect x="409.397" y="254.822" width="34.9567" height="36.7631" fill="#08C4B2" stroke="#040404" stroke-width="1.5"></rect><rect x="252.388" y="304.708" width="192.143" height="40.6629" rx="19.9919" fill="#FFE16E" stroke="#040404" stroke-width="1.5"></rect><path d="M278.62 332.96L285.94 325.4C287.86 323.48 287.74 320.48 285.94 318.56C284.02 316.64 281.02 316.76 279.1 318.56L278.5 319.16L277.9 318.56C275.98 316.64 272.98 316.64 271.06 318.56C269.14 320.48 269.26 323.48 271.06 325.4L278.62 332.96Z" fill="white" stroke="#040404" stroke-width="1.5" stroke-miterlimit="10" stroke-linecap="round" stroke-linejoin="round"></path><path d="M303.997 317.24C308.077 317.24 311.437 320.6 311.437 324.8C311.437 326.48 310.957 327.92 310.117 329.24L310.597 332.48L307.597 331.52C306.517 332.12 305.317 332.48 304.117 332.48C300.037 332.48 296.677 329.12 296.677 324.92C296.677 320.72 299.917 317.24 303.997 317.24Z" fill="white" stroke="#040404" stroke-width="1.5" stroke-miterlimit="10" stroke-linecap="round" stroke-linejoin="round"></path><path d="M412.5 317.72V332.48L418.62 327.2L424.74 332.84V317.72H412.5Z" fill="white" stroke="#040404" stroke-width="1.5" stroke-miterlimit="10" stroke-linecap="round" stroke-linejoin="round"></path><rect x="496.059" y="280.647" width="185.303" height="74.145" rx="7.25" fill="white" stroke="#040404" stroke-width="1.5"></rect><path d="M514.337 336.428H660.383" stroke="#040404" stroke-width="1.5" stroke-linecap="round" stroke-linejoin="round"></path><path d="M514.337 324.592H660.383" stroke="#040404" stroke-width="1.5" stroke-linecap="round" stroke-linejoin="round"></path><path d="M524.275 313.148C529.763 313.148 534.213 308.699 534.213 303.21C534.213 297.721 529.763 293.272 524.275 293.272C518.786 293.272 514.337 297.721 514.337 303.21C514.337 308.699 518.786 313.148 524.275 313.148Z" fill="#08C4B2" stroke="#040404" stroke-width="1.5" stroke-linecap="round" stroke-linejoin="round"></path><rect x="545.784" y="299.896" width="53.3199" height="6.62839" rx="3.3142" fill="white" stroke="#040404" stroke-width="1.5"></rect><path d="M216.697 116.516H149.209C145.301 116.516 142.14 119.677 142.14 123.585V167.025C142.14 170.933 145.301 174.094 149.209 174.094H155.531V185.922L167.359 174.094H216.697C220.604 174.094 223.765 170.933 223.765 167.025V123.585C223.765 119.677 220.604 116.516 216.697 116.516Z" fill="#FFE16E" stroke="#040404" stroke-width="1.5" stroke-linecap="round" stroke-linejoin="round"></path><path d="M198.638 151.037C196.038 151.037 193.931 148.93 193.931 146.33C193.931 143.731 196.038 141.624 198.638 141.624C201.237 141.624 203.344 143.731 203.344 146.33C203.344 148.93 201.237 151.037 198.638 151.037Z" fill="white" stroke="#040404" stroke-width="1.5" stroke-miterlimit="10"></path><path d="M183.599 151.037C181 151.037 178.893 148.93 178.893 146.33C178.893 143.731 181 141.624 183.599 141.624C186.198 141.624 188.306 143.731 188.306 146.33C188.306 148.93 186.198 151.037 183.599 151.037Z" fill="white" stroke="#040404" stroke-width="1.5" stroke-miterlimit="10"></path><path d="M168.554 151.037C165.955 151.037 163.848 148.93 163.848 146.33C163.848 143.731 165.955 141.624 168.554 141.624C171.153 141.624 173.26 143.731 173.26 146.33C173.26 148.93 171.153 151.037 168.554 151.037Z" fill="white" stroke="#040404" stroke-width="1.5" stroke-miterlimit="10"></path><path d="M184.773 134.81H252.261C256.168 134.81 259.33 137.972 259.33 141.879V185.32C259.33 189.227 256.168 192.388 252.261 192.388H245.939V204.216L234.11 192.388H184.773C180.866 192.388 177.705 189.227 177.705 185.32V141.879C177.705 137.972 180.866 134.81 184.773 134.81Z" fill="#08C4B2" stroke="#040404" stroke-width="1.5" stroke-linecap="round" stroke-linejoin="round"></path><path d="M236.327 169.338C233.728 169.338 231.62 167.23 231.62 164.631C231.62 162.032 233.728 159.925 236.327 159.925C238.926 159.925 241.033 162.032 241.033 164.631C241.033 167.23 238.926 169.338 236.327 169.338Z" fill="#EBF9EB" stroke="#040404" stroke-width="1.5" stroke-linecap="round" stroke-linejoin="round"></path><path d="M218.517 169.338C215.918 169.338 213.811 167.23 213.811 164.631C213.811 162.032 215.918 159.925 218.517 159.925C221.116 159.925 223.224 162.032 223.224 164.631C223.224 167.23 221.116 169.338 218.517 169.338Z" fill="#EBF9EB" stroke="#040404" stroke-width="1.5" stroke-linecap="round" stroke-linejoin="round"></path><path d="M200.708 169.338C198.108 169.338 196.001 167.23 196.001 164.631C196.001 162.032 198.108 159.925 200.708 159.925C203.307 159.925 205.414 162.032 205.414 164.631C205.414 167.23 203.307 169.338 200.708 169.338Z" fill="#EBF9EB" stroke="#040404" stroke-width="1.5" stroke-linecap="round" stroke-linejoin="round"></path><path d="M597.372 186.057H502.572C496.172 186.057 490.972 180.857 490.972 174.457V78.757C490.972 72.357 496.172 67.157 502.572 67.157H597.372C603.772 67.157 608.972 72.357 608.972 78.757V174.457C608.972 180.957 603.772 186.057 597.372 186.057Z" fill="#FFE16E" stroke="#040404" stroke-width="1.5" stroke-miterlimit="10" stroke-linecap="round" stroke-linejoin="round"></path><path d="M513.972 99.157C520.433 99.157 525.672 93.9187 525.672 87.457C525.672 80.9952 520.433 75.757 513.972 75.757C507.51 75.757 502.272 80.9952 502.272 87.457C502.272 93.9187 507.51 99.157 513.972 99.157Z" fill="#7DEAD5" stroke="#040404" stroke-width="1.5" stroke-miterlimit="10" stroke-linecap="round" stroke-linejoin="round"></path><path d="M535.772 87.357H592.772" stroke="#040404" stroke-width="1.5" stroke-miterlimit="10" stroke-linecap="round" stroke-linejoin="round"></path><path d="M491.372 106.557H608.172" stroke="#040404" stroke-width="1.5" stroke-miterlimit="10" stroke-linecap="round" stroke-linejoin="round"></path><path d="M513.972 137.957C520.433 137.957 525.672 132.719 525.672 126.257C525.672 119.795 520.433 114.557 513.972 114.557C507.51 114.557 502.272 119.795 502.272 126.257C502.272 132.719 507.51 137.957 513.972 137.957Z" fill="white" stroke="#040404" stroke-width="1.5" stroke-miterlimit="10" stroke-linecap="round" stroke-linejoin="round"></path><path d="M535.772 126.157H592.772" stroke="#040404" stroke-width="1.5" stroke-miterlimit="10" stroke-linecap="round" stroke-linejoin="round"></path><path d="M491.372 145.357H608.172" stroke="#040404" stroke-width="1.5" stroke-miterlimit="10" stroke-linecap="round" stroke-linejoin="round"></path><path d="M513.972 176.757C520.433 176.757 525.672 171.519 525.672 165.057C525.672 158.595 520.433 153.357 513.972 153.357C507.51 153.357 502.272 158.595 502.272 165.057C502.272 171.519 507.51 176.757 513.972 176.757Z" fill="#08C4B2" stroke="#040404" stroke-width="1.5" stroke-miterlimit="10" stroke-linecap="round" stroke-linejoin="round"></path><path d="M535.772 164.857H592.772" stroke="#040404" stroke-width="1.5" stroke-miterlimit="10" stroke-linecap="round" stroke-linejoin="round"></path><path d="M205.779 359.063C223.462 343.034 224.803 315.705 208.774 298.022C192.745 280.339 165.416 278.999 147.733 295.028C130.05 311.057 128.709 338.386 144.738 356.069C160.767 373.752 188.096 375.092 205.779 359.063Z" fill="#08C4B2" stroke="#040404" stroke-width="1.5"></path><path d="M211.445 352.56C208.807 343.566 198.141 336.894 175.52 337.104C153.01 337.314 144.121 344.1 142.068 353.071C146.128 358.453 151.392 362.811 157.437 365.795C163.483 368.78 170.143 370.308 176.885 370.258C183.627 370.209 190.264 368.582 196.265 365.509C202.266 362.436 207.464 358.002 211.445 352.56Z" fill="white" stroke="#040404" stroke-width="1.5"></path><path d="M188.776 331.776C197.36 325.138 198.937 312.798 192.299 304.214C185.661 295.63 173.321 294.053 164.737 300.691C156.153 307.329 154.575 319.669 161.214 328.253C167.852 336.837 180.192 338.414 188.776 331.776Z" fill="white" stroke="#040404" stroke-width="1.5"></path></svg>